<svg xmlns="http://www.w3.org/2000/svg" viewBox="0 0 20 20" class="acf-icon__icon" aria-hidden="true"><defs><symbol id="acf-icon__Comment__a742c248c7471"><path fill="currentColor" d="M4.375 15a2.71 2.71 0 0 1-2.708-2.708V5.208A2.71 2.71 0 0 1 4.375 2.5h11.25a2.71 2.71 0 0 1 2.708 2.708v7.084A2.71 2.71 0 0 1 15.625 15h-4.781l-4.179 3.126A1.042 1.042 0 0 1 5 17.292V15zm6.053-1.25h5.197c.805 0 1.458-.653 1.458-1.458V5.208c0-.805-.653-1.458-1.458-1.458H4.375c-.806 0-1.458.653-1.458 1.458v7.084c0 .805.652 1.458 1.458 1.458h1.874v3.125z"></path></symbol></defs><use href="#acf-icon__Comment__a742c248c7471"></use></svg>